<?xml version="1.0" encoding="utf-8"?>
<!-- Generator: Adobe Illustrator 15.0.0, SVG Export Plug-In . SVG Version: 6.00 Build 0)  -->
<!DOCTYPE svg PUBLIC "-//W3C//DTD SVG 1.1//EN" "http://www.w3.org/Graphics/SVG/1.1/DTD/svg11.dtd">
<svg version="1.1" id="Layer_1" xmlns="http://www.w3.org/2000/svg" xmlns:xlink="http://www.w3.org/1999/xlink" x="0px" y="0px"
	 width="63px" height="113.615px" viewBox="0 -16.875 63 113.615" enable-background="new 0 -16.875 63 113.615"
	 xml:space="preserve">
<g>
	<g>
		
			<circle fill="none" stroke="#FFDD00" stroke-width="2.4642" stroke-linecap="round" stroke-miterlimit="10" cx="31.823" cy="11.875" r="26.49"/>
		
			<line fill="none" stroke="#FFDD00" stroke-width="2.4642" stroke-linecap="round" stroke-miterlimit="10" x1="5.333" y1="10.644" x2="58.312" y2="10.644"/>
		<path fill="none" stroke="#FFDD00" stroke-width="2.4642" stroke-linecap="round" stroke-miterlimit="10" d="M23.148,10.644
			c0-4.792,3.884-8.676,8.674-8.676c4.792,0,8.675,3.884,8.675,8.676"/>
		<path fill="none" stroke="#FFDD00" stroke-width="2.4642" stroke-linecap="round" stroke-miterlimit="10" d="M23.148,35.95
			c0-4.791,3.884-8.675,8.674-8.675c4.792,0,8.675,3.884,8.675,8.675"/>
		
			<line fill="none" stroke="#FFDD00" stroke-width="2.4642" stroke-linecap="round" stroke-miterlimit="10" x1="31.822" y1="-2.91" x2="31.822" y2="-8.66"/>
		
			<line fill="none" stroke="#FFDD00" stroke-width="2.4642" stroke-linecap="round" stroke-miterlimit="10" x1="40.107" y1="-0.878" x2="44.173" y2="-4.943"/>
		
			<line fill="none" stroke="#FFDD00" stroke-width="2.4642" stroke-linecap="round" stroke-miterlimit="10" x1="44.861" y1="4.928" x2="50.304" y2="3.074"/>
		
			<line fill="none" stroke="#FFDD00" stroke-width="2.4642" stroke-linecap="round" stroke-miterlimit="10" x1="17.851" y1="5.269" x2="12.691" y2="2.73"/>
		
			<line fill="none" stroke="#FFDD00" stroke-width="2.4642" stroke-linecap="round" stroke-miterlimit="10" x1="19.083" y1="-4.942" x2="23.148" y2="-0.877"/>
	</g>
	<g>
		<circle fill="#61B8FF" cx="31.179" cy="67.99" r="26.49"/>
	</g>
	<text transform="matrix(1 0 0 1 7.1621 68.25)"><tspan x="0" y="0" fill="#FFFFFF" font-family="'FuturaStd-Heavy'" font-size="14">SUN UP</tspan><tspan x="9.926" y="16.8" fill="#FFFFFF" font-family="'FuturaStd-Heavy'" font-size="14">/SET</tspan></text>
</g>
</svg>
