<?xml version="1.0" encoding="utf-8"?>
<!-- Generator: Adobe Illustrator 15.0.0, SVG Export Plug-In . SVG Version: 6.00 Build 0)  -->
<!DOCTYPE svg PUBLIC "-//W3C//DTD SVG 1.1//EN" "http://www.w3.org/Graphics/SVG/1.1/DTD/svg11.dtd">
<svg version="1.1" id="Layer_1" xmlns="http://www.w3.org/2000/svg" xmlns:xlink="http://www.w3.org/1999/xlink" x="0px" y="0px"
	 width="63.001px" height="69.25px" viewBox="0 0 63.001 69.25" enable-background="new 0 0 63.001 69.25" xml:space="preserve">
<g>
	<path fill-rule="evenodd" clip-rule="evenodd" fill="#FFDE00" d="M54.729,44.721c0.881,1.584-1.58,2.965-0.523,4.458
		c2.359,1.312,0.752-3.97,3.408-3.671c1.051,1.293-0.461,3.674-1.049,4.982c0.826,0.658,2.004,0.968,3.146,1.311
		c0.672-0.553,0.898-1.549,0.787-2.885c3.336-0.203,1.625,3.611,1.049,5.244c-0.307-0.043-0.467,0.059-0.523,0.263
		c-0.549,0.089-1.178-0.298-1.836-0.525c-1.115-0.383-2.232-0.856-3.41-1.311c-2.307-0.89-5.285-3.106-3.146-6.556
		C53.007,45.428,53.067,44.416,54.729,44.721z"/>
	<path fill-rule="evenodd" clip-rule="evenodd" fill="#FFDE00" d="M58.925,18.238c-3.65,0.205-5.281,1.694-7.342,3.672
		c-0.744,0.714-1.295,2.171-2.885,1.834c-1.18-1.523,0.205-2.166,1.051-3.146c0.307-0.357,0.854-0.818,1.311-1.311
		c0.986-1.061,1.098-1.201,1.572-2.884c0.1-0.349,0.463-0.796,0.525-1.049c0.219-0.886-0.285-2.12,0.785-2.884
		c2.193,0.012,0.9,2.807,0.787,4.194C55.933,17.068,59.351,14.874,58.925,18.238z"/>
	<path fill-rule="evenodd" clip-rule="evenodd" fill="#FFDE00" d="M50.536,10.372c-1.625,0.227-1.967-0.831-2.885-1.312
		c-0.322,1.194-1.445,2.208-2.1,3.41c-0.383,0.705-0.416,1.523-0.785,2.098c-0.709,1.104-1.693,2.742-3.146,1.311
		c0.072-0.604,0.406-1.407,0.785-2.098c0.156-0.285,0.602-0.457,0.787-0.787c0.193-0.34,0.061-0.703,0.262-1.049
		c0.215-0.366,0.656-0.9,1.049-1.311c0.143-0.15,1.074-2.189,1.049-2.36c-0.193-1.332-1.545-0.838-2.098-2.36
		c0.486-1.535,2.178-0.426,3.148,0c0.613,0.27,1.383,0.896,2.096,1.311c0.557,0.322,1.539,1.051,2.1,1.574
		C50.831,9.445,50.837,10.062,50.536,10.372z"/>
	<path fill-rule="evenodd" clip-rule="evenodd" fill="#FFDE00" d="M40.569,56.258c0.461-0.641,1.582-0.619,2.359-0.262
		c0.814,1.722,1.635,3.438,2.623,4.982c0.867-0.582,1.008-2.115,0.951-3.089c-0.102-1.764-1.625-3.62-1.213-4.778
		c0.93-0.558,1.213-0.398,2.098,0c0.592,2.783,1.504,6.343,0.787,8.915c0.021-0.08-0.23,0.849,0,0.525
		c-1.76,2.479-4.488-0.121-5.506-1.836c-0.184-0.309-0.047-0.3-0.264-0.524c-0.164-0.172-0.289-0.788-0.523-1.311
		C41.628,58.312,40.704,57.018,40.569,56.258z"/>
	<path fill-rule="evenodd" clip-rule="evenodd" fill="#FFDE00" d="M30.606,29.513c0.928,2.426,1.361,5.868,1.049,10.225
		c-0.105,1.469-0.379,2.902-0.523,4.982c-0.076,1.084-0.338,2.299-0.525,3.408c-0.225,1.332-0.344,2.944-0.525,3.409
		c-0.26,0.671-1.539,0.983-1.834,0.524c-0.328-0.509-0.682-0.355-0.787-1.049c-0.148-0.963,0.814-3.311,1.049-5.769
		c0.08-0.849-0.088-1.823,0-2.622c0.084-0.766,0.459-1.607,0.525-2.359c0.219-2.567,0.225-5.357,0-7.342
		c-0.062-0.539-0.363-0.943-0.525-1.572c-0.148-0.58-0.07-1.121-0.262-1.574c-0.33-0.781-0.984-1.274-1.311-2.098
		c-2.143,0.742-2.545,3.225-3.934,4.721c-1.824-0.764-1.432-2.295-0.787-3.41c0.238-0.412,0.441-0.789,0.787-1.311
		c0.395-0.594,1.643-1.806,2.359-2.098c-1.371-1.512-4.404-1.364-5.768-2.885c0.939-2.611,4.361,0.35,6.029,0.525
		c0.41-2.379-1.156-4.829,0-6.293c2.82,0.238,1.842,4.277,2.623,6.555c2.18-0.351,4.637-2.732,7.08-3.671
		c0.67-0.258,1.336-0.316,2.096-0.524c1.088-0.297,1.371,0.239,2.361,1.05c0.221,0.179,0.668-0.008,0.525,0.524
		c-3.188,0.658-5.814,1.879-8.131,3.408c1.842,1.065,6.428,0.709,5.77,3.408c-2.051,0.605-3.893-1.142-6.293-1.049
		c0.047,0.676,0.656,1.043,1.049,1.573c0.514,0.696,0.951,1.351,1.574,2.099c0.379,0.456,1.055,1.547,0.785,2.359
		C32.167,33.024,31.911,30.744,30.606,29.513z"/>
	<path fill-rule="evenodd" clip-rule="evenodd" fill="#FFDE00" d="M34.278,6.176c0.605-0.268,0.543-1.206,0.523-2.099
		C33.784,3,32.661,1.605,31.132,1.718c-1.57,0.116-2.727,2.122-2.885,3.934c-0.137,1.545,0.029,3.752,0,5.506
		c-0.018,1.078-0.703,2.592,0.523,3.146c2.475-0.322,1.459-4.136,1.838-6.555c1.377,0.07,1.385-0.477,2.357,0
		c0.086,1.473-0.113,3.189,0,4.457c0.117,1.283-0.166,2.638,1.574,2.623c0.826-0.359,0.689-1.471,0.787-2.623
		C35.538,9.693,35.181,7.041,34.278,6.176z M30.585,6.403c-0.205-0.987,0.342-1.743,0.283-2.587c1.088-0.301,1.527,0.631,2.34,0.604
		C33.079,5.513,31.589,6.183,30.585,6.403z"/>
	<path fill-rule="evenodd" clip-rule="evenodd" fill="#FFDE00" d="M27.985,61.502c-0.154-0.4,0.352-1.539,0.262-2.098
		c-0.088-0.534-0.711-2.009-0.787-2.097c-0.092-0.106-0.678-0.188-0.787-0.264c-0.322-0.22-0.182-0.489-0.787-0.522
		c-1.111-0.062-1.613,0.848-2.098,1.572c-0.238,0.355-0.674,0.562-0.785,0.787c-0.213,0.424-0.283,1.393-0.523,2.098
		c-0.436,1.27-1.02,2.766-1.051,4.195c-0.021,0.975-0.328,1.547,0.787,1.573c2.053,0.048,1.012-4.685,2.623-4.721
		c1.432,0.054,0.516,1.866,0.785,3.147c0.285,1.348-0.1,2.447,1.572,2.359c0.061-0.203,0.221-0.305,0.525-0.262
		c0.289-1.172-0.088-1.986,0-3.41C27.757,63.297,28.134,61.896,27.985,61.502z M26.132,60.572c-0.176,0-1.611-0.233-1.787-0.233
		C24.083,59.061,27.46,57.308,26.132,60.572z"/>
	<path fill-rule="evenodd" clip-rule="evenodd" fill="#FFDE00" d="M19.854,42.623c-2.072,0.467-5.023,2.194-7.342,0.787
		c-0.871-0.529-1.814-2.382-1.834-2.885c-0.035-0.841,0.578-2.395,1.311-2.097c1.072-0.029,0.721,1.184,1.049,1.835
		c0.346,0.684,0.771,1.037,1.049,1.573c1.715-0.212,2.773-0.347,3.672-1.573c0.496-0.678,0.307-2.291,1.572-2.36
		c1.479,0.302,0.941,1.843,1.836,2.884c0.471,0.551,1.162,1.014,2.098,0.264c0.613-0.492,0.498-1.525,1.311-2.1
		c1.822,0.303,1.715,2.299,1.311,3.147c-0.496,1.046-2.82,1.707-3.932,1.573C21.12,43.572,20.657,43.133,19.854,42.623z"/>
	<path fill-rule="evenodd" clip-rule="evenodd" fill="#FFDE00" d="M22.479,13.519c-0.611-1.795-1.375-3.722-1.838-5.245
		c-0.123-0.409-0.645-1.008-0.787-1.311c-0.002-0.007-0.189-0.692-0.26-0.787c-1.793-2.361-5.096-1.714-5.508,1.311
		c-0.32,2.36,2.459,8.026,3.672,9.702c0.721,0.997,1.836,2.684,2.883,1.836c0.672-0.494-0.635-1.915-1.047-2.586
		c-0.463-0.756-0.475-1.566-0.787-2.135c-0.561-1.011-1.158-2-1.312-3.146c0.816,0.027,0.75-0.824,1.836-0.523
		c-0.172,1.18,0.84,1.937,1.34,2.94c0.303,0.604,0.752,2.271,1.344,2.864c0.414,0.416-0.441-0.199,0.725-0.299
		C23.13,15.122,22.804,14.477,22.479,13.519z M16.532,9.785c-0.174-0.963-1.574-2.332,0.408-3.439
		C18.103,6.698,19.595,9.609,16.532,9.785z"/>
	<path fill-rule="evenodd" clip-rule="evenodd" fill="#FFDE00" d="M8.319,60.654c-1.01-0.739-1.932-1.563-1.836-3.408
		c-1.703,0.132-2.326,1.345-4.459,1.049c-0.146-0.377-0.408-0.64-0.785-0.787c-0.264-2.133,1.232-3.654,2.098-4.982
		c0.453-0.696,0.988-1.383,1.572-2.098c0.18-0.219,0.076-0.586,0.262-0.785c0.258-0.275,0.721-0.828,1.574-0.787
		c0.191,0.245,0.479,0.397,0.787,0.525c0.07,1.351-1.516,2.02-2.021,2.794c-0.332,0.512-1.084,2.389-1.125,2.974
		c1.062,0.104,1.775-1.045,2.623-1.836c0.879-0.82,1.531-2.045,2.883-2.097c0.146,0.377,0.41,0.64,0.787,0.786
		c-0.039,2.321-3.477,1.689-2.543,5.305c0.324,0.486,1.869,0.02,2.018-0.175c0.355-0.468,0.504-1.251,1.049-1.835
		c0.242-0.26,0.338-1.119,0.787-1.46c-0.025-0.813,0.322-1.253,0.523-1.835c1.104-0.316,1.15,0.424,1.838,0.523
		c0.338,1.754-0.998,2.555-1.838,3.672C11.466,57.596,10.427,60.492,8.319,60.654z"/>
	<path fill-rule="evenodd" clip-rule="evenodd" fill="#FFDE00" d="M8.056,16.14c-0.689-1.283-1.529-3.666-1.834-3.934
		c-0.096-0.082-0.406,0.054-0.525,0c-0.098-0.044-0.139-0.473-0.262-0.523c-0.539-0.227-1.779-0.289-2.098-0.263
		c-0.598,0.05-0.459,0.364-0.787,0.524c-0.414,0.201-0.74,0.029-1.049,0.262c-0.928,0.705-1.26,1.601-0.787,2.361
		c1.338,2.15,2.301,4.943,3.408,6.816c0.484,0.815,0.768,1.471,1.049,2.098c0.039,0.085,0.461,0.166,0.525,0.262
		c0.289,0.432,0.094,0.504,0.525,0.787c0.57,0.376,0.912,0.627,1.834,0.264c0.031-1.605-1.057-2.088-1.311-3.41
		C7.083,20.195,8.925,17.752,8.056,16.14z M6.501,17.595c-0.068,0.418-1.316,0.952-1.066,1.429c-0.85-0.035-0.549-1.431-1.049-2.097
		c-0.064-0.088-0.49-0.185-0.525-0.263c-0.264-0.59-0.363-1.468-0.523-2.097c-0.119-0.471-0.852-0.701,0-1.312
		c0.777-0.202,1.219-0.229,1.592,0.144c0.52,0.521,0.221,0.501,0.523,1.049C5.896,15.246,6.745,16.089,6.501,17.595z"/>
	<path fill-rule="evenodd" clip-rule="evenodd" fill="#FFDE00" d="M35.063,38.166c1.793-0.045,2.217,1.279,2.623,2.621
		c1.584,1.029,3.068,0.908,4.195-0.786c0.631-0.948,0.199-2.807,1.572-3.146c0.234,0.203,0.594,0.281,1.049,0.261
		c0.434,1.667,0.764,3.434,3.148,3.147c0.867-0.619,0.676-2.295,1.572-2.885c1.812,0.121,1.697,1.416,1.312,2.885
		c-0.416,1.572-1.52,3.137-3.934,3.146c-1.049,0.004-1.889-0.438-2.885-1.049c-0.734,0.403-1.48,0.793-2.098,1.311
		c-1.902,0.166-2.994-0.032-4.197-0.525c-0.221-0.09-0.57,0.103-0.785,0c-0.139-0.064-0.146-0.455-0.262-0.523
		c-0.184-0.107-0.326,0.224-0.264,0.263c-0.379-0.237-0.547-0.601-0.785-0.787C35.132,41.948,34.505,38.919,35.063,38.166z"/>
</g>
</svg>
