<?xml version="1.0" encoding="utf-8"?>
<!-- Generator: Adobe Illustrator 15.0.0, SVG Export Plug-In . SVG Version: 6.00 Build 0)  -->
<!DOCTYPE svg PUBLIC "-//W3C//DTD SVG 1.1//EN" "http://www.w3.org/Graphics/SVG/1.1/DTD/svg11.dtd">
<svg version="1.1" id="Layer_1" xmlns="http://www.w3.org/2000/svg" xmlns:xlink="http://www.w3.org/1999/xlink" x="0px" y="0px"
	 width="63px" height="63px" viewBox="0 3.125 63 63" enable-background="new 0 3.125 63 63" xml:space="preserve">
<g>
	<g>
		
			<circle fill="#FFFFFF" stroke="#FFDD00" stroke-width="2.4642" stroke-linecap="round" stroke-miterlimit="10" cx="31.51" cy="34.21" r="26.49"/>
	</g>
	<g id="_x35_AJEGK_2_">
		<g>
			<path fill-rule="evenodd" clip-rule="evenodd" fill="#068E98" d="M31.886,17.994c-6.142,4.03-11.523,11.542-7.369,21.286
				c-5.727-1.671-4.872-13.376-1.637-17.192C14.955,24.805,9.64,30.136,8.143,39.28C6.307,25.706,17.922,18.496,31.886,17.994z"/>
			<path fill-rule="evenodd" clip-rule="evenodd" fill="#068E98" d="M49.079,31.094c-6.697-3.352-18.976-4.266-20.467,3.274
				C27.3,40.993,33.886,44.875,41.71,45.83c-21.733,4.911-20.221-27.476,3.274-18.012c-1.912-4.09-6.812-5.192-13.099-4.911
				c-2.093,0.035-0.998-0.609-0.819-1.639C39.935,18.507,47.856,23.511,49.079,31.094z"/>
			<path fill-rule="evenodd" clip-rule="evenodd" fill="#068E98" d="M31.067,38.463c7.732,2.366,19.792,0.403,24.562,5.731
				C51.8,41.192,33.462,45.624,31.067,38.463z"/>
		</g>
	</g>
</g>
</svg>
