<?xml version="1.0" encoding="utf-8"?>
<!-- Generator: Adobe Illustrator 15.0.0, SVG Export Plug-In . SVG Version: 6.00 Build 0)  -->
<!DOCTYPE svg PUBLIC "-//W3C//DTD SVG 1.1//EN" "http://www.w3.org/Graphics/SVG/1.1/DTD/svg11.dtd">
<svg version="1.1" id="Layer_1" xmlns="http://www.w3.org/2000/svg" xmlns:xlink="http://www.w3.org/1999/xlink" x="0px" y="0px"
	 width="110.438px" height="11.917px" viewBox="-19.5 18.958 110.438 11.917" enable-background="new -19.5 18.958 110.438 11.917">
<g>
	<g>
		<path fill="#FFDD00" d="M-19.445,21.826c1.235,9.231,14.463,9.128,16.983,0.669c-0.982-0.133-1.964-0.266-2.946-0.399
			c0.862,11.454,13.168,8.198,16.326-0.258c-0.964,0-1.928,0-2.893,0c0.871,2.682,2.693,6.972,5.965,7.349
			c3.87,0.446,6.727-2.871,7.894-6.253c-0.914,0.119-1.828,0.239-2.742,0.358c1.373,2.552,2.924,6.47,6.468,6.453
			c4.907-0.023,5.504-2.663,7.967-6.233c-0.864,0-1.727,0-2.591,0c4.702,6.952,12.751,5.661,15.901-1.893c-0.964,0-1.929,0-2.893,0
			c0.561,2.694,2.298,4.738,5.219,4.955c4.04,0.3,5.627-1.253,7.831-4.377c-0.914-0.119-1.827-0.239-2.741-0.358
			c1.236,8.306,12.479,7.991,12.815-0.619c0.044-1.132-1.31-1.875-2.257-1.295c-0.059,0.036-0.116,0.071-0.174,0.106
			c-0.627,0.384-0.794,1.006-0.689,1.694c0.474,3.133,1.81,7.653,5.687,7.941c5.129,0.382,7.201-3.596,9.305-7.583
			c-0.932-0.252-1.863-0.504-2.795-0.757c0.221,1.643,0.199,3.236,0.773,4.799c0.445,1.212,1.678,1.977,1.964,3.284
			c0.146,0.669,0.804,1.071,1.446,1.101c5.463,0.254,9.236-3.229,10.513-8.285c0.474-1.877-2.419-2.672-2.893-0.798
			c-0.957,3.79-3.52,6.273-7.62,6.083c0.482,0.367,0.965,0.734,1.446,1.102c-0.567-2.595-2.261-4.535-2.63-7.285
			c-0.18-1.334-2.02-2.227-2.795-0.757c-1.184,2.243-2.236,5.031-4.854,6.061c-3.633,1.428-4.362-3.765-4.655-5.703
			c-0.229,0.565-0.459,1.129-0.689,1.694c0.059-0.036,0.116-0.071,0.174-0.106c-0.752-0.432-1.505-0.864-2.257-1.295
			c-0.217,5.554-6.234,4.443-6.923-0.179c-0.211-1.421-2.089-1.283-2.741-0.358c-1.437,2.035-6.38,5.845-7.567,0.138
			c-0.337-1.621-2.383-1.223-2.893,0c-2.132,5.111-7.237,5.879-10.418,1.177c-0.657-0.971-1.932-0.956-2.591,0
			c-0.679,0.984-1.203,1.96-1.727,3.033c-3.298,1.691-5.413,1.356-6.344-1.004c-0.38-0.757-0.774-1.506-1.182-2.248
			c-0.653-1.214-2.341-0.805-2.742,0.358c-0.613,1.777-2.985,5.628-5.694,3.322c-1.236-1.052-1.895-2.927-2.379-4.418
			c-0.479-1.474-2.378-1.378-2.893,0C6.167,26.017-1.8,30.163-2.408,22.097c-0.125-1.659-2.446-2.079-2.946-0.399
			c-1.464,4.914-10.279,6.191-11.091,0.128C-16.698,19.938-19.701,19.913-19.445,21.826L-19.445,21.826z"/>
	</g>
</g>
</svg>
